<mxfile host="app.diagrams.net" modified="2024-04-15T02:38:32.013Z" agent="Mozilla/5.0 (Windows NT 10.0; Win64; x64) AppleWebKit/537.36 (KHTML, like Gecko) Chrome/123.0.0.0 Safari/537.36 Edg/123.0.0.0" etag="r_5NM0jRnBZcZRFnOX0I" version="24.2.2" type="github">
  <diagram name="第 1 页" id="Mak2ieR8xA3PXf7bSy21">
    <mxGraphModel dx="1173" dy="738" grid="0" gridSize="10" guides="1" tooltips="1" connect="1" arrows="1" fold="1" page="1" pageScale="1" pageWidth="827" pageHeight="1169" math="0" shadow="0">
      <root>
        <mxCell id="0" />
        <mxCell id="1" parent="0" />
        <mxCell id="rt77WLPKEXXo8Mf0uCti-17" value="" style="whiteSpace=wrap;html=1;aspect=fixed;" vertex="1" parent="1">
          <mxGeometry x="350.5" y="225" width="413" height="413" as="geometry" />
        </mxCell>
        <mxCell id="rt77WLPKEXXo8Mf0uCti-15" value="" style="whiteSpace=wrap;html=1;aspect=fixed;" vertex="1" parent="1">
          <mxGeometry x="30" y="225" width="304" height="304" as="geometry" />
        </mxCell>
        <mxCell id="UdsSKJ6RfXxm3bDVdD73-1" value="&lt;div style=&quot;&quot;&gt;&lt;pre style=&quot;font-family: &amp;quot;JetBrains Mono&amp;quot;, monospace; font-size: 15pt;&quot;&gt;&lt;span style=&quot;background-color: rgb(255, 255, 255);&quot;&gt;深度学习&lt;/span&gt;&lt;/pre&gt;&lt;/div&gt;" style="rounded=0;whiteSpace=wrap;html=1;" parent="1" vertex="1">
          <mxGeometry x="122" y="283" width="120" height="46" as="geometry" />
        </mxCell>
        <mxCell id="rt77WLPKEXXo8Mf0uCti-1" value="&lt;div style=&quot;&quot;&gt;&lt;pre style=&quot;font-family: &amp;quot;JetBrains Mono&amp;quot;, monospace; font-size: 15pt;&quot;&gt;&lt;span style=&quot;background-color: rgb(255, 255, 255);&quot;&gt;NLP&lt;/span&gt;&lt;/pre&gt;&lt;/div&gt;" style="rounded=0;whiteSpace=wrap;html=1;" vertex="1" parent="1">
          <mxGeometry x="122" y="367" width="120" height="46" as="geometry" />
        </mxCell>
        <mxCell id="rt77WLPKEXXo8Mf0uCti-2" value="&lt;div style=&quot;&quot;&gt;&lt;pre style=&quot;font-family: &amp;quot;JetBrains Mono&amp;quot;, monospace; font-size: 15pt;&quot;&gt;&lt;span style=&quot;background-color: rgb(255, 255, 255);&quot;&gt;分布式计算&lt;/span&gt;&lt;/pre&gt;&lt;/div&gt;" style="rounded=0;whiteSpace=wrap;html=1;" vertex="1" parent="1">
          <mxGeometry x="497" y="353" width="120" height="46" as="geometry" />
        </mxCell>
        <mxCell id="rt77WLPKEXXo8Mf0uCti-3" value="&lt;div style=&quot;&quot;&gt;&lt;pre style=&quot;font-family: &amp;quot;JetBrains Mono&amp;quot;, monospace; font-size: 15pt;&quot;&gt;&lt;span style=&quot;background-color: rgb(255, 255, 255);&quot;&gt;异构计算&lt;/span&gt;&lt;/pre&gt;&lt;/div&gt;" style="rounded=0;whiteSpace=wrap;html=1;fillColor=#dae8fc;strokeColor=#6c8ebf;" vertex="1" parent="1">
          <mxGeometry x="581" y="447" width="120" height="46" as="geometry" />
        </mxCell>
        <mxCell id="rt77WLPKEXXo8Mf0uCti-4" value="&lt;div style=&quot;&quot;&gt;&lt;pre style=&quot;font-family: &amp;quot;JetBrains Mono&amp;quot;, monospace; font-size: 15pt;&quot;&gt;&lt;span style=&quot;background-color: rgb(255, 255, 255);&quot;&gt;分布式系统&lt;/span&gt;&lt;/pre&gt;&lt;/div&gt;" style="rounded=0;whiteSpace=wrap;html=1;" vertex="1" parent="1">
          <mxGeometry x="497" y="267" width="120" height="46" as="geometry" />
        </mxCell>
        <mxCell id="rt77WLPKEXXo8Mf0uCti-5" value="&lt;div style=&quot;&quot;&gt;&lt;pre style=&quot;font-family: &amp;quot;JetBrains Mono&amp;quot;, monospace; font-size: 15pt;&quot;&gt;&lt;span style=&quot;background-color: rgb(255, 255, 255);&quot;&gt;CUDA编程&lt;/span&gt;&lt;/pre&gt;&lt;/div&gt;" style="rounded=0;whiteSpace=wrap;html=1;" vertex="1" parent="1">
          <mxGeometry x="359" y="267" width="120" height="46" as="geometry" />
        </mxCell>
        <mxCell id="rt77WLPKEXXo8Mf0uCti-6" value="" style="endArrow=classic;html=1;rounded=0;exitX=0.5;exitY=1;exitDx=0;exitDy=0;entryX=0.5;entryY=0;entryDx=0;entryDy=0;" edge="1" parent="1" source="rt77WLPKEXXo8Mf0uCti-4" target="rt77WLPKEXXo8Mf0uCti-2">
          <mxGeometry width="50" height="50" relative="1" as="geometry">
            <mxPoint x="387" y="405" as="sourcePoint" />
            <mxPoint x="437" y="355" as="targetPoint" />
          </mxGeometry>
        </mxCell>
        <mxCell id="rt77WLPKEXXo8Mf0uCti-7" value="&lt;div style=&quot;&quot;&gt;&lt;pre style=&quot;font-family: &amp;quot;JetBrains Mono&amp;quot;, monospace; font-size: 15pt;&quot;&gt;&lt;span style=&quot;background-color: rgb(255, 255, 255);&quot;&gt;同构计算&lt;/span&gt;&lt;/pre&gt;&lt;/div&gt;" style="rounded=0;whiteSpace=wrap;html=1;" vertex="1" parent="1">
          <mxGeometry x="423" y="447" width="120" height="46" as="geometry" />
        </mxCell>
        <mxCell id="rt77WLPKEXXo8Mf0uCti-10" style="edgeStyle=orthogonalEdgeStyle;rounded=0;orthogonalLoop=1;jettySize=auto;html=1;exitX=1;exitY=0.75;exitDx=0;exitDy=0;entryX=1;entryY=0.5;entryDx=0;entryDy=0;" edge="1" parent="1" source="rt77WLPKEXXo8Mf0uCti-3" target="rt77WLPKEXXo8Mf0uCti-3">
          <mxGeometry relative="1" as="geometry" />
        </mxCell>
        <mxCell id="rt77WLPKEXXo8Mf0uCti-13" value="" style="endArrow=classic;html=1;rounded=0;exitX=0.5;exitY=1;exitDx=0;exitDy=0;entryX=0.5;entryY=0;entryDx=0;entryDy=0;" edge="1" parent="1" source="rt77WLPKEXXo8Mf0uCti-2" target="rt77WLPKEXXo8Mf0uCti-7">
          <mxGeometry width="50" height="50" relative="1" as="geometry">
            <mxPoint x="387" y="405" as="sourcePoint" />
            <mxPoint x="437" y="355" as="targetPoint" />
          </mxGeometry>
        </mxCell>
        <mxCell id="rt77WLPKEXXo8Mf0uCti-14" value="" style="endArrow=classic;html=1;rounded=0;exitX=0.5;exitY=1;exitDx=0;exitDy=0;entryX=0.5;entryY=0;entryDx=0;entryDy=0;" edge="1" parent="1" source="rt77WLPKEXXo8Mf0uCti-2" target="rt77WLPKEXXo8Mf0uCti-3">
          <mxGeometry width="50" height="50" relative="1" as="geometry">
            <mxPoint x="567" y="409" as="sourcePoint" />
            <mxPoint x="476" y="510" as="targetPoint" />
          </mxGeometry>
        </mxCell>
        <mxCell id="rt77WLPKEXXo8Mf0uCti-16" value="系统学习" style="text;html=1;align=center;verticalAlign=middle;whiteSpace=wrap;rounded=0;fontSize=18;fontColor=#FF3333;" vertex="1" parent="1">
          <mxGeometry x="41" y="231" width="105" height="44" as="geometry" />
        </mxCell>
        <mxCell id="rt77WLPKEXXo8Mf0uCti-18" value="&lt;div style=&quot;&quot;&gt;&lt;pre style=&quot;font-family: &amp;quot;JetBrains Mono&amp;quot;, monospace; font-size: 15pt;&quot;&gt;&lt;span style=&quot;background-color: rgb(255, 255, 255);&quot;&gt;并行计算&lt;/span&gt;&lt;/pre&gt;&lt;/div&gt;" style="rounded=0;whiteSpace=wrap;html=1;" vertex="1" parent="1">
          <mxGeometry x="635" y="267" width="120" height="46" as="geometry" />
        </mxCell>
        <mxCell id="rt77WLPKEXXo8Mf0uCti-20" value="&lt;div style=&quot;&quot;&gt;&lt;pre style=&quot;font-family: &amp;quot;JetBrains Mono&amp;quot;, monospace; font-size: 15pt;&quot;&gt;&lt;span style=&quot;background-color: rgb(255, 255, 255);&quot;&gt;书&lt;/span&gt;&lt;/pre&gt;&lt;/div&gt;" style="rounded=0;whiteSpace=wrap;html=1;" vertex="1" parent="1">
          <mxGeometry x="122" y="632" width="120" height="46" as="geometry" />
        </mxCell>
        <mxCell id="rt77WLPKEXXo8Mf0uCti-21" value="" style="endArrow=classic;html=1;rounded=0;exitX=0.5;exitY=1;exitDx=0;exitDy=0;entryX=0.5;entryY=0;entryDx=0;entryDy=0;" edge="1" parent="1" source="rt77WLPKEXXo8Mf0uCti-15" target="rt77WLPKEXXo8Mf0uCti-20">
          <mxGeometry width="50" height="50" relative="1" as="geometry">
            <mxPoint x="387" y="519" as="sourcePoint" />
            <mxPoint x="437" y="469" as="targetPoint" />
          </mxGeometry>
        </mxCell>
      </root>
    </mxGraphModel>
  </diagram>
</mxfile>
